<svg xmlns="http://www.w3.org/2000/svg" width="64" height="64" viewBox="0 0 24 24" fill="none">
  <rect x="3" y="3" width="14" height="18" rx="2.5" ry="2.5" stroke="#FF6B6B" stroke-width="2"/>
  <path d="M17 21V6.5C17 5.67157 17.6716 5 18.5 5H20C20.5523 5 21 5.44772 21 6V19C21 20.1046 20.1046 21 19 21H17Z" stroke="#FF6B6B" stroke-width="2"/>
  <path d="M7.5 9.25C7.5 8.00736 8.50736 7 9.75 7C10.4404 7 11.059 7.31893 11.4571 7.82243C11.8552 7.31893 12.4738 7 13.1643 7C14.4069 7 15.4143 8.00736 15.4143 9.25C15.4143 11.5 11.4571 13 11.4571 13C11.4571 13 7.5 11.5 7.5 9.25Z" fill="#FF6B6B"/>
  <rect x="5" y="17" width="8" height="2" rx="1" fill="#FF6B6B"/>
</svg>

